<?xml version="1.0" encoding="UTF-8" standalone="no"?>
<!DOCTYPE svg PUBLIC "-//W3C//DTD SVG 1.1//EN" "http://www.w3.org/Graphics/SVG/1.1/DTD/svg11.dtd">
<svg width="100%" height="100%" viewBox="0 0 32 32" version="1.1" xmlns="http://www.w3.org/2000/svg" xmlns:xlink="http://www.w3.org/1999/xlink" xml:space="preserve" xmlns:serif="http://www.serif.com/" style="fill-rule:evenodd;clip-rule:evenodd;stroke-linejoin:round;stroke-miterlimit:2;">
    <g transform="matrix(1.74632,0,0,1.74632,-4.37964,-10.0204)">
        <path d="M11.87,6.674C12.769,6.674 13.6,6.782 14.362,6.999C15.124,7.216 15.898,7.557 16.685,8.022L17.239,7.565C17.624,7.26 17.941,7.051 18.189,6.939C18.438,6.826 18.723,6.77 19.044,6.77C19.429,6.77 19.734,6.855 19.959,7.023C20.183,7.192 20.296,7.436 20.296,7.757C20.296,7.886 20.272,8.022 20.224,8.167L19.213,11.489C19.1,11.874 18.96,12.147 18.791,12.307C18.623,12.468 18.37,12.548 18.033,12.548C17.68,12.548 17.371,12.44 17.106,12.223C16.841,12.006 16.428,11.561 15.866,10.887C15.305,10.245 14.795,9.791 14.338,9.527C13.88,9.262 13.411,9.129 12.929,9.129C12.576,9.129 12.279,9.246 12.039,9.479C11.798,9.711 11.678,9.996 11.678,10.333C11.678,10.718 11.87,11.075 12.255,11.404C12.641,11.733 13.242,12.147 14.061,12.644C14.895,13.142 15.586,13.591 16.131,13.992C16.677,14.393 17.142,14.891 17.527,15.485C17.913,16.079 18.105,16.761 18.105,17.531C18.105,18.028 18.025,18.526 17.864,19.024C17.479,20.307 16.733,21.282 15.626,21.948C14.518,22.614 13.226,22.947 11.75,22.947C10.643,22.947 9.712,22.819 8.957,22.562C8.203,22.305 7.433,21.872 6.646,21.262L5.78,21.984C5.379,22.322 5.05,22.55 4.793,22.671C4.536,22.791 4.247,22.851 3.926,22.851C3.557,22.851 3.264,22.763 3.047,22.586C2.831,22.41 2.722,22.169 2.722,21.864C2.722,21.704 2.755,21.535 2.819,21.359L3.998,17.772C4.127,17.354 4.303,17.058 4.528,16.881C4.753,16.704 5.042,16.616 5.395,16.616C5.764,16.616 6.097,16.745 6.394,17.001C6.691,17.258 7.08,17.724 7.561,18.398C8.075,19.136 8.552,19.649 8.994,19.938C9.435,20.227 9.96,20.372 10.57,20.372C11.004,20.372 11.337,20.303 11.569,20.167C11.802,20.031 11.967,19.81 12.063,19.505C12.095,19.425 12.111,19.304 12.111,19.144C12.111,18.759 11.926,18.406 11.557,18.085C11.188,17.764 10.618,17.379 9.848,16.929C9.03,16.432 8.364,15.986 7.85,15.593C7.336,15.2 6.891,14.706 6.514,14.113C6.137,13.519 5.948,12.821 5.948,12.018C5.948,11.457 6.037,10.903 6.213,10.357C6.55,9.25 7.24,8.359 8.283,7.685C9.327,7.011 10.522,6.674 11.87,6.674Z" style="fill:rgb(68,221,85);fill-rule:nonzero;"/>
    </g>
</svg>
